<svg xmlns="http://www.w3.org/2000/svg" width="317.632" height="317.632" viewBox="0 0 317.632 317.632">
  <g id="Icon_ionic-md-sad" data-name="Icon ionic-md-sad" transform="translate(-3.375 -3.375)">
    <path id="Trazado_1" data-name="Trazado 1" d="M88.851,20.25A86.348,86.348,0,0,0,10.814,69.116H166.888A86.348,86.348,0,0,0,88.851,20.25Z" transform="translate(73.34 166.374)"  fill="#471f13"/>
    <path id="Trazado_2" data-name="Trazado 2" d="M162.191,3.375C74.05,3.375,3.375,74.842,3.375,162.191S74.05,321.007,162.191,321.007s158.816-71.467,158.816-158.816S249.54,3.375,162.191,3.375Zm0,285.868c-69.877,0-127.056-57.176-127.056-127.053S92.314,35.138,162.191,35.138,289.246,92.313,289.246,162.191,232.068,289.243,162.191,289.243Z" transform="translate(0 0)" fill="#471f13"/>
    <path id="Trazado_3" data-name="Trazado 3" d="M44.747,59.795A23.4,23.4,0,0,0,68.57,35.972,23.4,23.4,0,0,0,44.747,12.15,23.4,23.4,0,0,0,20.925,35.972,23.4,23.4,0,0,0,44.747,59.795Z" transform="translate(173.029 86.514)"  fill="#471f13"/>
    <path id="Trazado_4" data-name="Trazado 4" d="M34.511,59.795A23.4,23.4,0,0,0,58.333,35.972,23.4,23.4,0,0,0,34.511,12.15,23.4,23.4,0,0,0,10.687,35.972,23.4,23.4,0,0,0,34.511,59.795Z" transform="translate(72.095 86.514)" fill="#471f13"/>
  </g>
</svg>
