<svg id="Icon_feather-shopping-cart" data-name="Icon feather-shopping-cart" xmlns="http://www.w3.org/2000/svg" width="51.607" height="49.398" viewBox="0 0 51.607 49.398">
  <path id="Trazado_1" data-name="Trazado 1" d="M16.419,32.209A2.209,2.209,0,1,1,14.209,30,2.209,2.209,0,0,1,16.419,32.209Z" transform="translate(4.966 13.479)" fill="none" stroke="#f2e8d8" stroke-linecap="round" stroke-linejoin="round" stroke-width="3"/>
  <path id="Trazado_2" data-name="Trazado 2" d="M32.919,32.209A2.209,2.209,0,1,1,30.709,30,2.209,2.209,0,0,1,32.919,32.209Z" transform="translate(12.769 13.479)" fill="none" stroke="#f2e8d8" stroke-linecap="round" stroke-linejoin="round" stroke-width="3"/>
  <path id="Trazado_3" data-name="Trazado 3" d="M1.5,1.5h8.838l5.921,29.584a4.419,4.419,0,0,0,4.419,3.557H42.153a4.419,4.419,0,0,0,4.419-3.557l3.535-18.537H12.547" fill="none" stroke="#f2e8d8" stroke-linecap="round" stroke-linejoin="round" stroke-width="3"/>
</svg>
