<svg xmlns="http://www.w3.org/2000/svg" width="32.326" height="32.326" viewBox="0 0 32.326 32.326">
  <path id="Icon_open-magnifying-glass" data-name="Icon open-magnifying-glass" d="M14.016,0a14.016,14.016,0,0,0,0,28.031,13.853,13.853,0,0,0,6.647-1.642,4.005,4.005,0,0,0,.521.521l4,4a4.085,4.085,0,1,0,5.766-5.766l-4-4a4,4,0,0,0-.641-.521,13.827,13.827,0,0,0,1.762-6.647A14.031,14.031,0,0,0,14.056-.045Zm0,4A9.964,9.964,0,0,1,24.027,14.011,10.042,10.042,0,0,1,21.384,20.9l-.12.12a4,4,0,0,0-.521.521,10.02,10.02,0,0,1-6.768,2.523,10.011,10.011,0,1,1,0-20.022Z" transform="translate(0 0.045)" fill="#f2e8d8"/>
</svg>
